<svg id="OBJECTS" xmlns="http://www.w3.org/2000/svg" xmlns:xlink="http://www.w3.org/1999/xlink" viewBox="0 0 227.57 326.47"><defs><style>.cls-1{fill:url(#linear-gradient);}.cls-2{fill:url(#linear-gradient-2);}.cls-3{fill:url(#linear-gradient-3);}.cls-4{fill:url(#linear-gradient-4);}.cls-5{fill:url(#linear-gradient-5);}.cls-6{fill:url(#linear-gradient-6);}.cls-7{fill:url(#linear-gradient-7);}.cls-8{fill:url(#linear-gradient-8);}.cls-9{fill:url(#linear-gradient-9);}.cls-10{fill:url(#linear-gradient-10);}.cls-11{fill:url(#linear-gradient-11);}.cls-12{fill:url(#linear-gradient-12);}.cls-13{fill:url(#linear-gradient-13);}.cls-14{fill:url(#linear-gradient-14);}.cls-15{fill:url(#linear-gradient-15);}.cls-16,.cls-17,.cls-18,.cls-19,.cls-20,.cls-21,.cls-22{opacity:0.61;}.cls-16{fill:url(#linear-gradient-16);}.cls-17{fill:url(#linear-gradient-17);}.cls-18{fill:url(#linear-gradient-18);}.cls-19{fill:url(#linear-gradient-19);}.cls-20{fill:url(#linear-gradient-20);}.cls-21{fill:url(#linear-gradient-21);}.cls-22{fill:url(#linear-gradient-22);}.cls-23{font-size:50.14px;fill:#006fe2;font-family:Montserrat-Bold, Montserrat;font-weight:700;letter-spacing:0em;}.cls-24{font-size:21px;fill:#41505e;font-family:Montserrat-Regular, Montserrat;letter-spacing:0.5em;}</style><linearGradient id="linear-gradient" x1="136.22" y1="240.98" x2="363.78" y2="240.98" gradientUnits="userSpaceOnUse"><stop offset="0" stop-color="#e57129"/><stop offset="0.54" stop-color="#ffb539"/><stop offset="1" stop-color="#e57129"/></linearGradient><linearGradient id="linear-gradient-2" x1="250.05" y1="298.7" x2="250.05" y2="74.92" gradientUnits="userSpaceOnUse"><stop offset="0.31" stop-color="#006fe2"/><stop offset="0.72" stop-color="#1faaf0"/></linearGradient><linearGradient id="linear-gradient-3" x1="218.75" y1="329.27" x2="218.75" y2="120.13" xlink:href="#linear-gradient-2"/><linearGradient id="linear-gradient-4" x1="201.74" y1="329.27" x2="201.74" y2="135.8" xlink:href="#linear-gradient-2"/><linearGradient id="linear-gradient-5" x1="185.33" y1="303.35" x2="185.33" y2="128.17" xlink:href="#linear-gradient-2"/><linearGradient id="linear-gradient-6" x1="281.01" y1="329.27" x2="281.01" y2="120.13" xlink:href="#linear-gradient-2"/><linearGradient id="linear-gradient-7" x1="298.02" y1="329.27" x2="298.02" y2="135.8" xlink:href="#linear-gradient-2"/><linearGradient id="linear-gradient-8" x1="313.96" y1="303.87" x2="313.96" y2="128.11" xlink:href="#linear-gradient-2"/><linearGradient id="linear-gradient-9" x1="153.57" y1="190.26" x2="153.57" y2="151.77" gradientUnits="userSpaceOnUse"><stop offset="0" stop-color="#1faaf0"/><stop offset="1" stop-color="#50e2cf"/></linearGradient><linearGradient id="linear-gradient-10" x1="180.51" y1="202.72" x2="180.51" y2="145.59" xlink:href="#linear-gradient-9"/><linearGradient id="linear-gradient-11" x1="218.75" y1="223.66" x2="218.75" y2="137.34" xlink:href="#linear-gradient-9"/><linearGradient id="linear-gradient-12" x1="250.05" y1="222.07" x2="250.05" y2="113.8" xlink:href="#linear-gradient-9"/><linearGradient id="linear-gradient-13" x1="281.01" y1="222.76" x2="281.01" y2="155.65" xlink:href="#linear-gradient-9"/><linearGradient id="linear-gradient-14" x1="320.35" y1="200.45" x2="317.99" y2="146.42" xlink:href="#linear-gradient-9"/><linearGradient id="linear-gradient-15" x1="346.19" y1="187.38" x2="346.19" y2="157.32" xlink:href="#linear-gradient-9"/><linearGradient id="linear-gradient-16" x1="185.33" y1="316.04" x2="185.33" y2="280.81" gradientUnits="userSpaceOnUse"><stop offset="0" stop-color="#952196"/><stop offset="1" stop-color="#1656d6"/></linearGradient><linearGradient id="linear-gradient-17" x1="201.8" y1="314.5" x2="201.8" y2="268.23" xlink:href="#linear-gradient-16"/><linearGradient id="linear-gradient-18" x1="218.87" y1="313.99" x2="218.87" y2="266.13" xlink:href="#linear-gradient-16"/><linearGradient id="linear-gradient-19" x1="107.47" y1="316.04" x2="107.47" y2="280.81" gradientTransform="matrix(-1, 0, 0, 1, 422.77, 0)" xlink:href="#linear-gradient-16"/><linearGradient id="linear-gradient-20" x1="123.95" y1="314.5" x2="123.95" y2="268.23" gradientTransform="matrix(-1, 0, 0, 1, 422.77, 0)" xlink:href="#linear-gradient-16"/><linearGradient id="linear-gradient-21" x1="141.02" y1="313.99" x2="141.02" y2="266.13" gradientTransform="matrix(-1, 0, 0, 1, 422.77, 0)" xlink:href="#linear-gradient-16"/><linearGradient id="linear-gradient-22" x1="113.83" y1="222.77" x2="113.83" y2="195.5" xlink:href="#linear-gradient-16"/></defs><title>4851044</title><path class="cls-1" d="M363.78,151.16V278.87a5.93,5.93,0,0,1-3,5.16l-70,40.13-9.28,5.33-8.4,4.82a15.43,15.43,0,0,1-7.73,2.06H234.59a15.43,15.43,0,0,1-7.73-2.06l-8.4-4.82-9.28-5.33-70-40.13a6,6,0,0,1-3-5.16V151.16a3.17,3.17,0,0,1,1.61-2.78l4.34-2.48.15-.06a3.82,3.82,0,0,1,3.55.43c1.31.74-1.22,2.47-2.13,3.06V276.58a4.22,4.22,0,0,0,2.11,3.67l75.79,43.91,5.37,3.12a14.83,14.83,0,0,0,7.41,2h31.16a14.83,14.83,0,0,0,7.41-2l5.37-3.12,75.8-43.91a4.24,4.24,0,0,0,2.11-3.67V149.33c-.93-.59-3.45-2.32-2.12-3.06,2-1.13,3.37-.52,3.53-.43l.15.06,4.34,2.48A3.17,3.17,0,0,1,363.78,151.16Z" transform="translate(-136.22 -97.79)"/><path class="cls-2" d="M253.84,101.59V329.27h-7.58V101.59a3.79,3.79,0,0,1,3.79-3.8,3.81,3.81,0,0,1,3.79,3.8Z" transform="translate(-136.22 -97.79)"/><path class="cls-3" d="M240,199V329.27l-41.62-79.49a7.39,7.39,0,0,1-.6-1.56,7.22,7.22,0,0,1-.24-1.85V122.16a2,2,0,0,1,3.84-.94l36.76,70.2A16.31,16.31,0,0,1,240,199Z" transform="translate(-136.22 -97.79)"/><path class="cls-4" d="M234.67,329.27l-64.36-62.11a4.61,4.61,0,0,1-1.15-1.74,3.52,3.52,0,0,1-.24-.78,4.62,4.62,0,0,1-.11-1V137.94a2.15,2.15,0,0,1,3.6-1.57l17.47,16.19a7.24,7.24,0,0,1,2.32,5.31v89.71a7.25,7.25,0,0,0,.25,1.86,6.53,6.53,0,0,0,.56,1.49s0,.07.06.11Z" transform="translate(-136.22 -97.79)"/><path class="cls-5" d="M227,327.28,143.64,279V147.52a1.43,1.43,0,0,1,2.16-1.24l15.47,9.06a4.44,4.44,0,0,1,2.23,3.86V266.41a4.49,4.49,0,0,0,.16,1.22,4.81,4.81,0,0,0,.58,1.36,4.42,4.42,0,0,0,.83,1Z" transform="translate(-136.22 -97.79)"/><path class="cls-6" d="M302.25,122.16V246.37a7.51,7.51,0,0,1-.84,3.41l-41.63,79.49V199a16.32,16.32,0,0,1,1.87-7.58l36.76-70.2A2,2,0,0,1,302.25,122.16Z" transform="translate(-136.22 -97.79)"/><path class="cls-7" d="M331,137.94V263.65a4.88,4.88,0,0,1-1.49,3.51l-64.37,62.11L306.71,251a7.47,7.47,0,0,0,.85-3.46V157.87a7.24,7.24,0,0,1,2.32-5.31l17.48-16.19A2.14,2.14,0,0,1,331,137.94Z" transform="translate(-136.22 -97.79)"/><path class="cls-8" d="M356.12,147.52V279L271.8,327.88,334.7,270a4.85,4.85,0,0,0,1.57-3.58V159.2a4.48,4.48,0,0,1,2.22-3.86L354,146.28A1.43,1.43,0,0,1,356.12,147.52Z" transform="translate(-136.22 -97.79)"/><path class="cls-9" d="M163.5,159.2V197l-19.86-11V147.52a1.43,1.43,0,0,1,2.16-1.24l15.47,9.06A4.44,4.44,0,0,1,163.5,159.2Z" transform="translate(-136.22 -97.79)"/><path class="cls-10" d="M189.88,152.56a7.24,7.24,0,0,1,2.32,5.31v55l-23.39-13v-62a2.15,2.15,0,0,1,3.6-1.57Z" transform="translate(-136.22 -97.79)"/><path class="cls-11" d="M240,199v40.41l-42.46-23.56V122.16a2,2,0,0,1,3.84-.94l36.76,70.2A16.31,16.31,0,0,1,240,199Z" transform="translate(-136.22 -97.79)"/><path class="cls-12" d="M253.84,101.59V241h-7.58V101.59a3.79,3.79,0,0,1,3.79-3.8,3.81,3.81,0,0,1,3.79,3.8Z" transform="translate(-136.22 -97.79)"/><path class="cls-13" d="M302.25,122.16v93.69l-42.47,23.56V199a16.32,16.32,0,0,1,1.87-7.58l36.76-70.2A2,2,0,0,1,302.25,122.16Z" transform="translate(-136.22 -97.79)"/><path class="cls-14" d="M331,137.94v62l-23.39,13v-55a7.24,7.24,0,0,1,2.32-5.31l17.48-16.19A2.14,2.14,0,0,1,331,137.94Z" transform="translate(-136.22 -97.79)"/><path class="cls-15" d="M356.12,147.52V186l-19.85,11V159.2a4.48,4.48,0,0,1,2.22-3.86L354,146.28A1.43,1.43,0,0,1,356.12,147.52Z" transform="translate(-136.22 -97.79)"/><path class="cls-16" d="M165.07,270,227,327.28,143.64,279l20-11.39a4.81,4.81,0,0,0,.58,1.36A4.42,4.42,0,0,0,165.07,270Z" transform="translate(-136.22 -97.79)"/><path class="cls-17" d="M193.07,251l41.6,78.23-64.36-62.11a4.61,4.61,0,0,1-1.15-1.74,3.52,3.52,0,0,1-.24-.78L193,250.93S193,251,193.07,251Z" transform="translate(-136.22 -97.79)"/><path class="cls-18" d="M240,283.09v46.18l-41.62-79.49a7.39,7.39,0,0,1-.6-1.56l41.77,34.87Z" transform="translate(-136.22 -97.79)"/><path class="cls-19" d="M335.55,270l-61.94,57.29L357,279l-20-11.39a4.81,4.81,0,0,1-.58,1.36A4.17,4.17,0,0,1,335.55,270Z" transform="translate(-136.22 -97.79)"/><path class="cls-20" d="M307.55,251,266,329.27l64.36-62.11a4.61,4.61,0,0,0,1.15-1.74,3.06,3.06,0,0,0,.24-.78l-24.08-13.71A1.05,1.05,0,0,0,307.55,251Z" transform="translate(-136.22 -97.79)"/><path class="cls-21" d="M260.64,283.09v46.18l41.63-79.49a7.94,7.94,0,0,0,.59-1.56l-41.77,34.87Z" transform="translate(-136.22 -97.79)"/><rect class="cls-22" x="110.05" y="185.3" width="7.57" height="46.18"/><text class="cls-23" transform="translate(33.08 296.35)">BOOK</text><text class="cls-24" transform="translate(65.76 320.97)">SHOP</text></svg>